<svg width="174" height="40" viewBox="0 0 174 40" fill="none" xmlns="http://www.w3.org/2000/svg">
<g clip-path="url(#clip0_1_34)">
<path d="M4.57314 9.71085C4.25304 9.71085 3.94605 9.83982 3.71971 10.0694C3.49337 10.299 3.36621 10.6103 3.36621 10.935V25.7361C3.3669 27.6163 4.09948 29.4203 5.40463 30.7556C6.70979 32.0909 8.48195 32.8496 10.3357 32.8666H12.0361C11.5972 32.8473 11.1825 32.6575 10.878 32.3363C10.5735 32.0152 10.4027 31.5875 10.4008 31.1419V10.935C10.4008 10.6106 10.2739 10.2994 10.0478 10.0699C9.82181 9.84038 9.51519 9.71123 9.19535 9.71085H4.57314Z" fill="url(#paint0_linear_1_34)"/>
<path d="M3.36621 25.7346V31.8333C3.36564 32.9056 3.57344 33.9675 3.97772 34.9583C4.382 35.9491 4.97485 36.8494 5.72237 37.6077C6.46989 38.3661 7.35743 38.9675 8.33425 39.3777C9.31108 39.788 10.358 39.9989 11.4153 39.9985H27.7102C29.4734 39.8542 31.1183 39.0414 32.3172 37.7222C33.516 36.4029 34.1808 34.6739 34.179 32.8798V31.1273C34.1756 31.5865 33.9932 32.0257 33.6717 32.3491C33.3501 32.6725 32.9155 32.8538 32.4627 32.8534L12.0405 32.8651H10.4095C8.5438 32.8659 6.75413 32.1152 5.43393 30.7781C4.11372 29.441 3.37102 27.6269 3.36911 25.7346H3.36621Z" fill="url(#paint1_linear_1_34)"/>
<path d="M12.0724 9.80134e-06H1.90905C1.31572 9.80134e-06 0.880123 0.494652 0.848285 1.09498C0.779674 2.70353 0.509291 4.29667 0.0436674 5.83591C-0.137227 6.48027 0.267976 7.15692 0.927879 7.15692H32.4512C37.1863 7.20535 41.2094 11.0862 41.2094 15.9886V8.17556C41.2095 6.53292 40.7217 4.92835 39.8098 3.57089C38.8978 2.21343 37.6039 1.16602 36.0966 0.565106L36.0344 0.541621L36.0098 0.531347C35.0956 0.17855 34.1255 -0.00153076 33.1473 9.80134e-06H12.0724Z" fill="url(#paint2_linear_1_34)"/>
<path d="M34.1656 8.88596H34.1758V31.1023V32.8548C34.1772 34.6489 33.5123 36.3777 32.3135 37.6969C31.1147 39.0161 29.4701 39.8289 27.707 39.9736C27.5203 39.9883 27.3336 39.9971 27.144 39.9971H33.1584C34.2157 39.998 35.2628 39.7875 36.2398 39.3776C37.2168 38.9677 38.1045 38.3664 38.8521 37.6081C39.5997 36.8498 40.1926 35.9495 40.5967 34.9586C41.0009 33.9677 41.2084 32.9056 41.2075 31.8333V16.0458C41.2079 13.6938 40.2887 11.4376 38.6516 9.7719C37.0144 8.10618 34.7928 7.16685 32.4739 7.15985C32.9233 7.16295 33.3532 7.34618 33.6698 7.66955C33.9865 7.99292 34.1642 8.4302 34.1642 8.88596" fill="url(#paint3_linear_1_34)"/>
<path d="M97.6497 2.72714H100.815C100.885 2.72714 100.952 2.75544 101.002 2.80581C101.052 2.85619 101.079 2.92451 101.079 2.99575V23.7781C101.079 23.8133 101.073 23.8481 101.059 23.8806C101.046 23.9132 101.026 23.9427 101.002 23.9675C100.977 23.9923 100.948 24.012 100.916 24.0253C100.884 24.0386 100.849 24.0454 100.815 24.0452H97.6497C97.581 24.0437 97.5156 24.0148 97.4677 23.9648C97.4198 23.9149 97.3932 23.8478 97.3936 23.7781V2.99575C97.3934 2.96054 97.4 2.92565 97.4132 2.89307C97.4263 2.86049 97.4457 2.83086 97.4702 2.8059C97.4947 2.78094 97.5238 2.76113 97.5558 2.74762C97.5879 2.7341 97.6222 2.72714 97.6569 2.72714" fill="white"/>
<path d="M106.8 13.4478V13.3876C106.8 7.41817 111.303 2.36166 117.64 2.36166C121.187 2.36166 123.413 3.33187 125.513 5.08293C125.567 5.12869 125.601 5.19443 125.608 5.26572C125.614 5.337 125.593 5.40799 125.548 5.46309L123.551 7.88346C123.505 7.93722 123.441 7.97073 123.371 7.97677C123.302 7.98281 123.232 7.9609 123.179 7.91575C121.626 6.61383 120.057 5.80361 117.496 5.80361C113.622 5.80361 110.678 9.24556 110.678 13.326V13.3876C110.678 17.7734 113.532 21.001 117.826 21.001C119.557 21.0165 121.253 20.5052 122.695 19.5332C122.759 19.4871 122.811 19.4261 122.847 19.3554C122.883 19.2846 122.901 19.2062 122.901 19.1267V13.5594C122.901 13.4884 122.929 13.4203 122.978 13.37C123.027 13.3196 123.094 13.2912 123.164 13.2908H126.203C126.24 13.2887 126.276 13.2943 126.31 13.3072C126.344 13.3201 126.375 13.34 126.401 13.3656C126.427 13.3913 126.448 13.4221 126.462 13.4562C126.475 13.4903 126.482 13.5269 126.481 13.5638V20.6957C126.481 20.8233 126.453 20.9492 126.398 21.0641C126.344 21.1789 126.264 21.2798 126.166 21.3592C123.78 23.336 120.794 24.4156 117.713 24.4151C111.13 24.4136 106.8 19.6683 106.8 13.4478Z" fill="white"/>
<path d="M138.203 15.4279L130.258 3.14253C130.232 3.10224 130.216 3.0554 130.214 3.00702C130.212 2.95864 130.223 2.91055 130.245 2.86788C130.268 2.82521 130.301 2.78957 130.342 2.76479C130.383 2.74 130.43 2.72698 130.478 2.72714H134.083C134.172 2.72732 134.26 2.75043 134.338 2.79432C134.417 2.8382 134.483 2.90144 134.53 2.97813L140.008 11.7848C140.031 11.823 140.064 11.8545 140.103 11.8763C140.142 11.8982 140.186 11.9096 140.23 11.9096C140.275 11.9096 140.319 11.8982 140.358 11.8763C140.397 11.8545 140.43 11.823 140.453 11.7848L146.019 2.97813C146.067 2.90212 146.132 2.8395 146.21 2.79613C146.287 2.75275 146.375 2.73003 146.463 2.73008H149.925C149.973 2.72997 150.02 2.74305 150.061 2.76792C150.102 2.79279 150.136 2.82851 150.159 2.87129C150.181 2.91407 150.192 2.96229 150.19 3.01083C150.188 3.05937 150.173 3.10641 150.146 3.14693L142.207 15.3383C142.114 15.478 142.064 15.6424 142.063 15.811V23.7781C142.063 23.8489 142.035 23.9169 141.985 23.967C141.936 24.0171 141.869 24.0452 141.799 24.0452H138.602C138.568 24.0454 138.533 24.0386 138.501 24.0253C138.469 24.012 138.44 23.9923 138.415 23.9675C138.391 23.9427 138.371 23.9132 138.358 23.8806C138.344 23.8481 138.338 23.8133 138.338 23.7781V15.8961C138.337 15.7294 138.29 15.5663 138.2 15.4264" fill="white"/>
<path d="M155.605 2.72714H158.452C158.549 2.72702 158.644 2.74945 158.731 2.7927C158.818 2.83596 158.895 2.8989 158.954 2.97667L169.647 16.9734C169.674 17.0086 169.711 17.0343 169.753 17.0469C169.796 17.0596 169.841 17.0585 169.882 17.044C169.924 17.0295 169.96 17.0021 169.985 16.9658C170.011 16.9295 170.025 16.8859 170.025 16.8413V2.99575C170.025 2.92451 170.053 2.85619 170.102 2.80582C170.152 2.75544 170.219 2.72714 170.289 2.72714H173.394C173.464 2.72714 173.531 2.75544 173.581 2.80582C173.631 2.85619 173.658 2.92451 173.658 2.99575V23.7781C173.658 23.8133 173.652 23.8481 173.638 23.8806C173.625 23.9132 173.605 23.9427 173.581 23.9675C173.556 23.9923 173.527 24.012 173.495 24.0253C173.463 24.0386 173.428 24.0454 173.394 24.0452H170.877C170.78 24.0455 170.685 24.0233 170.597 23.9803C170.51 23.9373 170.434 23.8747 170.375 23.7972L159.353 9.37326C159.326 9.33752 159.289 9.31128 159.247 9.29826C159.204 9.28524 159.159 9.28609 159.117 9.30071C159.075 9.31532 159.038 9.34295 159.013 9.37968C158.987 9.41641 158.974 9.46038 158.974 9.50536V23.7781C158.974 23.8489 158.946 23.9169 158.897 23.967C158.848 24.0171 158.781 24.0452 158.711 24.0452H155.605C155.57 24.0454 155.536 24.0386 155.504 24.0253C155.472 24.012 155.443 23.9923 155.418 23.9675C155.393 23.9427 155.374 23.9132 155.361 23.8806C155.347 23.8481 155.34 23.8133 155.34 23.7781V2.99575C155.34 2.92451 155.368 2.85619 155.418 2.80582C155.468 2.75544 155.535 2.72714 155.605 2.72714Z" fill="white"/>
<path d="M86.4313 16.1647C86.4162 16.1432 86.4063 16.1183 86.4026 16.0921C86.3989 16.066 86.4013 16.0393 86.4098 16.0143C86.4183 15.9893 86.4326 15.9667 86.4514 15.9485C86.4703 15.9302 86.4931 15.9168 86.5181 15.9093C89.3155 15.0154 91.2836 12.9341 91.2836 9.52004V9.45839C91.2836 7.60018 90.6527 6.01644 89.547 4.85983C88.1954 3.51974 86.1231 2.72714 83.4806 2.72714H76.281C76.2463 2.72714 76.2119 2.7341 76.1798 2.74762C76.1478 2.76113 76.1187 2.78094 76.0942 2.8059C76.0697 2.83086 76.0504 2.86049 76.0372 2.89307C76.0241 2.92565 76.0174 2.96054 76.0176 2.99575V5.87113C76.0174 5.90627 76.0241 5.94109 76.0372 5.97359C76.0504 6.00609 76.0698 6.03561 76.0943 6.06046C76.1188 6.0853 76.1479 6.10497 76.1799 6.11833C76.212 6.13169 76.2463 6.13846 76.281 6.13827H83.1752C85.9089 6.13827 87.5297 7.38735 87.5297 9.67122V9.73287C87.5297 11.8949 85.8481 13.2966 83.207 13.2966H78.9018C78.8319 13.2966 78.7649 13.3248 78.7155 13.3749C78.6661 13.425 78.6384 13.4929 78.6384 13.5638V16.3526C78.6382 16.3876 78.6448 16.4223 78.6579 16.4547C78.671 16.4871 78.6902 16.5165 78.7146 16.5414C78.7389 16.5662 78.7679 16.5859 78.7997 16.5993C78.8316 16.6128 78.8658 16.6197 78.9003 16.6197H82.1014C82.2014 16.6195 82.3 16.6437 82.3889 16.6902C82.4778 16.7367 82.5544 16.8041 82.6123 16.8868L87.4081 23.7781C87.4653 23.8599 87.5411 23.9266 87.6289 23.9726C87.7168 24.0185 87.8143 24.0424 87.9132 24.0423H91.4602C91.507 24.0414 91.5527 24.0279 91.5927 24.0031C91.6327 23.9783 91.6654 23.9432 91.6875 23.9013C91.7096 23.8595 91.7203 23.8124 91.7185 23.7649C91.7167 23.7174 91.7025 23.6713 91.6772 23.6313L86.4313 16.1647Z" fill="white"/>
<path d="M53.3696 13.3568V13.2966C53.3696 7.24056 57.9759 2.16937 64.491 2.16937C71.0061 2.16937 75.5516 7.18038 75.5516 13.2335V13.2966C75.5516 19.3512 70.9453 24.4224 64.4302 24.4224C57.9151 24.4224 53.3696 19.4055 53.3696 13.3568ZM71.6428 13.3568V13.2966C71.6428 9.11492 68.6429 5.64215 64.4302 5.64215C60.2176 5.64215 57.2798 9.05474 57.2798 13.2335V13.2966C57.2798 17.4754 60.2783 20.9188 64.491 20.9188C68.7037 20.9188 71.6428 17.5429 71.6428 13.3568Z" fill="white"/>
<path d="M57.7311 32.4468H61.1247V33.6753H57.7311V36.8501H56.2681V29.1223H61.3071V30.3493H57.7311V32.4468Z" fill="white"/>
<path d="M68.0163 29.3072C68.7023 29.6199 69.0916 30.1761 69.2392 31.0803C69.2971 31.4282 69.3202 31.8802 69.3202 32.9106C69.3202 34.7644 69.2508 35.2738 68.9309 35.8535C68.6574 36.3408 68.1538 36.677 67.4693 36.8164C66.9211 36.9008 66.3666 36.9357 65.8123 36.9206C64.6806 36.9206 64.1105 36.8267 63.6416 36.5727C63.0367 36.2366 62.727 35.7376 62.5909 34.8804C62.5331 34.5208 62.5215 34.1465 62.5215 33.1895C62.5215 31.1963 62.6025 30.6282 62.9556 30.0602C63.1199 29.8208 63.33 29.6174 63.5734 29.462C63.8168 29.3067 64.0885 29.2026 64.3724 29.156C64.9052 29.0731 65.4442 29.0382 65.9831 29.0518C67.0656 29.0518 67.5692 29.1223 68.0163 29.3072ZM64.0077 33.304C64.0077 34.6602 64.0642 35.0081 64.3391 35.3325C64.5562 35.5879 64.8977 35.6451 66.0641 35.6451C67.1828 35.6451 67.491 35.5174 67.6864 34.9611C67.8224 34.5795 67.8311 34.3813 67.8311 32.9341C67.8311 31.7173 67.8311 31.6821 67.7747 31.3195C67.7052 30.8675 67.5229 30.5768 67.2378 30.4492C66.986 30.3449 66.7009 30.3229 65.8442 30.3229C64.918 30.3229 64.6097 30.3802 64.3695 30.6165C64.1293 30.8528 64.0149 31.2652 64.0048 32.03L64.0077 33.304Z" fill="white"/>
<path d="M77.2781 29.1223V34.2668C77.2781 35.2165 77.1638 35.7346 76.8787 36.1206C76.6264 36.444 76.2775 36.6757 75.8845 36.7811C75.5951 36.8736 74.993 36.9206 74.1132 36.9206C72.9931 36.9206 72.4793 36.8619 72.0336 36.6652C71.2116 36.3056 70.9482 35.7493 70.9482 34.3476V29.1223H72.4113V34.3461C72.4113 35.4704 72.64 35.6436 74.1247 35.6436C75.6095 35.6436 75.815 35.4822 75.815 34.2888V29.1223H77.2781Z" fill="white"/>
<path d="M86.2622 36.8501H83.802L81.6197 32.6097C81.4836 32.3161 81.3302 32.0064 80.8773 30.9408L80.6269 30.3963H80.5806L80.5922 30.8939C80.6269 31.6366 80.6269 31.6938 80.6269 32.4116V36.8501H79.187V29.1223H81.6341L83.6225 33.0383C83.912 33.6181 84.0002 33.8148 84.514 34.9273L84.8034 35.5643H84.8497L84.8381 35.0653C84.8034 34.3476 84.8034 34.2903 84.8034 33.5711V29.1223H86.2506L86.2622 36.8501Z" fill="white"/>
<path d="M88.1709 29.1223H91.9335C92.9856 29.1223 93.6484 29.3307 94.0811 29.7828C94.6295 30.3493 94.8133 31.0113 94.8133 32.3543C94.8133 34.44 94.7439 35.077 94.4935 35.6216C94.0709 36.4685 93.3054 36.8501 91.9798 36.8501H88.1709V29.1223ZM91.6904 35.5805C92.3865 35.5805 92.7757 35.4411 93.0029 35.1167C93.2547 34.7571 93.3228 34.2947 93.3228 32.9722C93.3228 31.6498 93.2663 31.1889 93.0333 30.8528C92.8163 30.5401 92.4545 30.4124 91.7888 30.4124H89.6325V35.5805H91.6904Z" fill="white"/>
<path d="M97.6655 35.3736L97.1981 36.856H95.667L98.2024 29.1281H100.362L102.943 36.856H101.445L100.956 35.3736H97.6655ZM99.3109 30.2627L98.0085 34.2727H100.625L99.3109 30.2627Z" fill="white"/>
<path d="M106.555 36.8501H105.092V30.4198H102.893V29.1223H108.81V30.4198H106.555V36.8501Z" fill="white"/>
<path d="M111.617 36.8501H110.154V29.1223H111.617V36.8501Z" fill="white"/>
<path d="M118.769 29.3072C119.455 29.6199 119.843 30.1761 119.992 31.0803C120.049 31.4282 120.072 31.8802 120.072 32.9106C120.072 34.7644 120.002 35.2738 119.682 35.8535C119.409 36.3408 118.907 36.677 118.221 36.8164C117.673 36.9009 117.118 36.9358 116.564 36.9206C115.434 36.9206 114.862 36.8267 114.393 36.5727C113.788 36.2366 113.48 35.7376 113.342 34.8804C113.285 34.5208 113.274 34.1465 113.274 33.1895C113.274 31.1963 113.354 30.6282 113.709 30.0602C113.872 29.8207 114.082 29.6171 114.325 29.4618C114.569 29.3064 114.84 29.2024 115.124 29.156C115.657 29.073 116.197 29.0381 116.736 29.0518C117.821 29.0518 118.324 29.1223 118.769 29.3072ZM114.759 33.304C114.759 34.6602 114.816 35.0081 115.091 35.3325C115.308 35.5879 115.651 35.6451 116.816 35.6451C117.936 35.6451 118.244 35.5174 118.438 34.9611C118.583 34.5795 118.583 34.3813 118.583 32.9341C118.583 31.7173 118.583 31.6821 118.525 31.3195C118.457 30.8675 118.273 30.5768 117.988 30.4492C117.736 30.3449 117.451 30.3229 116.594 30.3229C115.669 30.3229 115.36 30.3802 115.12 30.6165C114.879 30.8528 114.766 31.2652 114.755 32.03L114.759 33.304Z" fill="white"/>
<path d="M128.797 36.8501H126.337L124.166 32.6097C124.021 32.3161 123.877 32.0064 123.424 30.9408L123.172 30.3963H123.125L123.137 30.8939C123.172 31.6366 123.172 31.6938 123.172 32.4116V36.8501H121.725V29.1223H124.17L126.157 33.0383C126.447 33.6181 126.535 33.8148 127.049 34.9273L127.338 35.5643H127.384L127.373 35.0653C127.338 34.3476 127.338 34.2903 127.338 33.5711V29.1223H128.785L128.797 36.8501Z" fill="white"/>
</g>
<defs>
<linearGradient id="paint0_linear_1_34" x1="7.70189" y1="9.71085" x2="7.70189" y2="32.8666" gradientUnits="userSpaceOnUse">
<stop offset="0.03" stop-color="#05612D"/>
<stop offset="0.3" stop-color="#017E36"/>
<stop offset="0.33" stop-color="#138838"/>
<stop offset="0.4" stop-color="#2E963C"/>
<stop offset="0.48" stop-color="#41A13F"/>
<stop offset="0.55" stop-color="#4CA740"/>
<stop offset="0.63" stop-color="#50A941"/>
<stop offset="0.73" stop-color="#57AB3C"/>
<stop offset="0.88" stop-color="#6CAF30"/>
<stop offset="0.91" stop-color="#70B02D"/>
</linearGradient>
<linearGradient id="paint1_linear_1_34" x1="34.179" y1="32.8666" x2="3.36621" y2="32.8666" gradientUnits="userSpaceOnUse">
<stop offset="0.03" stop-color="#1F9CD4"/>
<stop offset="0.3" stop-color="#1470B1"/>
<stop offset="0.36" stop-color="#1A5EA2"/>
<stop offset="0.44" stop-color="#214B92"/>
<stop offset="0.53" stop-color="#254088"/>
<stop offset="0.63" stop-color="#263C85"/>
<stop offset="0.69" stop-color="#25397E"/>
<stop offset="0.79" stop-color="#223169"/>
<stop offset="0.9" stop-color="#1E2448"/>
<stop offset="0.91" stop-color="#1E2345"/>
</linearGradient>
<linearGradient id="paint2_linear_1_34" x1="3.95822" y1="-4.64259" x2="40.9626" y2="16.4215" gradientUnits="userSpaceOnUse">
<stop stop-color="#EDE229"/>
<stop offset="0.44" stop-color="#F3A30F"/>
<stop offset="0.57" stop-color="#E96316"/>
<stop offset="0.68" stop-color="#E1321B"/>
<stop offset="0.73" stop-color="#DE1F1D"/>
<stop offset="0.84" stop-color="#DC1820"/>
<stop offset="1" stop-color="#DB1222"/>
</linearGradient>
<linearGradient id="paint3_linear_1_34" x1="34.1787" y1="40" x2="34.1787" y2="7.15985" gradientUnits="userSpaceOnUse">
<stop stop-color="#293170"/>
<stop offset="0.06" stop-color="#313272"/>
<stop offset="0.14" stop-color="#473577"/>
<stop offset="0.25" stop-color="#6A3A7F"/>
<stop offset="0.29" stop-color="#793C82"/>
<stop offset="0.44" stop-color="#803483"/>
<stop offset="0.66" stop-color="#852E83"/>
<stop offset="0.97" stop-color="#59132A"/>
<stop offset="1" stop-color="#551022"/>
</linearGradient>
<clipPath id="clip0_1_34">
<rect width="173.659" height="40" fill="white"/>
</clipPath>
</defs>
</svg>
